<svg width="40" height="40" viewBox="0 0 40 40" fill="none" xmlns="http://www.w3.org/2000/svg">
<rect width="40" height="40" rx="10" fill="#090E17"/>
<path d="M20 28.5C21.8097 28.5 23.5451 28.3212 25.1534 27.9934C27.1623 27.5839 28.1668 27.3791 29.0834 26.2006C30 25.0221 30 23.6693 30 20.9635V19.0365C30 16.3307 30 14.9779 29.0834 13.7994C28.1668 12.6209 27.1623 12.4161 25.1534 12.0066C23.5451 11.6788 21.8097 11.5 20 11.5C18.1903 11.5 16.4549 11.6788 14.8466 12.0066C12.8377 12.4161 11.8332 12.6209 10.9166 13.7994C10 14.9779 10 16.3307 10 19.0365V20.9635C10 23.6693 10 25.0221 10.9166 26.2006C11.8332 27.3791 12.8377 27.5839 14.8466 27.9934C16.4549 28.3212 18.1903 28.5 20 28.5Z" stroke="#9CA3AF" stroke-width="1.5"/>
<path d="M23.9621 20.3129C23.8137 20.9187 23.0241 21.3538 21.4449 22.2241C19.7272 23.1705 18.8684 23.6438 18.1728 23.4615C17.9372 23.3997 17.7202 23.2911 17.538 23.1438C17 22.7089 17 21.8059 17 20C17 18.1941 17 17.2911 17.538 16.8562C17.7202 16.7089 17.9372 16.6003 18.1728 16.5385C18.8684 16.3562 19.7272 16.8294 21.4449 17.7759C23.0241 18.6462 23.8137 19.0813 23.9621 19.6871C24.0126 19.8933 24.0126 20.1067 23.9621 20.3129Z" stroke="#9CA3AF" stroke-width="1.5" stroke-linejoin="round"/>
</svg>
