<svg width="40" height="40" viewBox="0 0 40 40" fill="none" xmlns="http://www.w3.org/2000/svg">
<rect width="40" height="40" rx="10" fill="#090E17"/>
<path fill-rule="evenodd" clip-rule="evenodd" d="M14.1818 18.3333C13.2041 18.3333 13 18.5252 13 19.4444V21.1111C13 22.0304 13.2041 22.2222 14.1818 22.2222H16.5455V28.8889C16.5455 29.8081 16.7495 30 17.7273 30H20.0909C21.0687 30 21.2727 29.8081 21.2727 28.8889V22.2222H23.9267C24.6683 22.2222 24.8594 22.0867 25.0631 21.4164L25.5696 19.7497C25.9185 18.6014 25.7035 18.3333 24.4332 18.3333H21.2727V15.5556C21.2727 14.9419 21.8018 14.4444 22.4545 14.4444H25.8182C26.7959 14.4444 27 14.2526 27 13.3333V11.1111C27 10.1918 26.7959 10 25.8182 10H22.4545C19.191 10 16.5455 12.4873 16.5455 15.5556V18.3333H14.1818Z" stroke="#9CA3AF" stroke-width="1.5" stroke-linejoin="round"/>
</svg>
