<svg width="40" height="40" viewBox="0 0 40 40" fill="none" xmlns="http://www.w3.org/2000/svg">
<rect width="40" height="40" rx="10" fill="#090E17"/>
<path d="M12.5 17.5H12C11.0572 17.5 10.5858 17.5 10.2929 17.7929C10 18.0858 10 18.5572 10 19.5V28C10 28.9428 10 29.4142 10.2929 29.7071C10.5858 30 11.0572 30 12 30H12.5C13.4428 30 13.9142 30 14.2071 29.7071C14.5 29.4142 14.5 28.9428 14.5 28V19.5C14.5 18.5572 14.5 18.0858 14.2071 17.7929C13.9142 17.5 13.4428 17.5 12.5 17.5Z" stroke="#9CA3AF" stroke-width="1.5"/>
<path d="M14.5 12.25C14.5 13.4926 13.4926 14.5 12.25 14.5C11.0074 14.5 10 13.4926 10 12.25C10 11.0074 11.0074 10 12.25 10C13.4926 10 14.5 11.0074 14.5 12.25Z" stroke="#9CA3AF" stroke-width="1.5"/>
<path d="M20.326 17.5H19.5C18.5572 17.5 18.0858 17.5 17.7929 17.7929C17.5 18.0858 17.5 18.5572 17.5 19.5V28C17.5 28.9428 17.5 29.4142 17.7929 29.7071C18.0858 30 18.5572 30 19.5 30H20C20.9428 30 21.4142 30 21.7071 29.7071C22 29.4142 22 28.9428 22 28L22.0001 24.5001C22.0001 22.8433 22.5281 21.5001 24.0879 21.5001C24.8677 21.5001 25.5 22.1717 25.5 23.0001V27.5001C25.5 28.4429 25.5 28.9143 25.7929 29.2072C26.0857 29.5001 26.5572 29.5001 27.5 29.5001H27.9987C28.9413 29.5001 29.4126 29.5001 29.7055 29.2073C29.9984 28.9145 29.9985 28.4432 29.9987 27.5006L30.0001 22.0002C30.0001 19.515 27.6364 17.5002 25.2968 17.5002C23.9649 17.5002 22.7767 18.1531 22.0001 19.174C22 18.5439 22 18.2289 21.8632 17.995C21.7765 17.8469 21.6531 17.7235 21.505 17.6369C21.2711 17.5 20.9561 17.5 20.326 17.5Z" stroke="#9CA3AF" stroke-width="1.5" stroke-linejoin="round"/>
</svg>
