<svg width="40" height="40" viewBox="0 0 40 40" fill="none" xmlns="http://www.w3.org/2000/svg">
<rect width="40" height="40" rx="10" fill="#090E17"/>
<path d="M10.5 20C10.5 15.5217 10.5 13.2825 11.8912 11.8912C13.2825 10.5 15.5217 10.5 20 10.5C24.4783 10.5 26.7175 10.5 28.1088 11.8912C29.5 13.2825 29.5 15.5217 29.5 20C29.5 24.4783 29.5 26.7175 28.1088 28.1088C26.7175 29.5 24.4783 29.5 20 29.5C15.5217 29.5 13.2825 29.5 11.8912 28.1088C10.5 26.7175 10.5 24.4783 10.5 20Z" stroke="#9CA3AF" stroke-width="1.5" stroke-linejoin="round"/>
<path d="M18.5359 19.0075C17.7158 18.8916 15.8467 19.0834 14.9301 20.7782C14.0135 22.4729 14.9373 24.2368 15.5137 24.9069C16.083 25.5338 17.8923 26.721 19.8114 25.5619C20.2871 25.2746 20.8797 25.0603 21.552 22.8153L21.4738 13.9814C21.3441 14.9542 22.4186 17.2357 25.478 17.5057" stroke="#9CA3AF" stroke-width="1.5" stroke-linecap="round" stroke-linejoin="round"/>
</svg>
