<svg width="211" height="60" viewBox="0 0 211 60" fill="none" xmlns="http://www.w3.org/2000/svg">
<rect width="211" height="60" rx="16" fill="#111827"/>
<path fill-rule="evenodd" clip-rule="evenodd" d="M36.1418 16.3857C37.5999 14.6958 38.5828 12.342 38.3138 10C36.2126 10.08 33.6704 11.3423 32.1637 13.0303C30.8107 14.5283 29.6297 16.9218 29.9472 19.2178C32.2911 19.3918 34.6836 18.0777 36.1418 16.3857ZM41.398 31.25C41.4566 37.3039 46.9393 39.3178 47 39.3438C46.9555 39.4858 46.1243 42.2132 44.112 45.0332C42.3707 47.4692 40.5647 49.8953 37.7192 49.9473C34.9243 49.9973 34.0243 48.3594 30.8269 48.3594C27.6315 48.3594 26.6325 49.8951 23.9872 49.9971C21.2408 50.0951 19.1476 47.3616 17.3942 44.9336C13.8065 39.9677 11.0661 30.9002 14.7469 24.7803C16.5751 21.7423 19.8413 19.8156 23.3886 19.7676C26.0844 19.7176 28.6306 21.5059 30.2789 21.5059C31.9271 21.5059 35.0214 19.3559 38.2734 19.6719C39.6344 19.7259 43.4568 20.1977 45.9099 23.6396C45.7117 23.7576 41.3494 26.1901 41.398 31.25Z" fill="white"/>
<path d="M61.368 22V13.6H64.788C65.684 13.6 66.468 13.78 67.14 14.14C67.82 14.492 68.348 14.984 68.724 15.616C69.1 16.248 69.288 16.976 69.288 17.8C69.288 18.624 69.1 19.352 68.724 19.984C68.348 20.616 67.82 21.112 67.14 21.472C66.468 21.824 65.684 22 64.788 22H61.368ZM62.256 21.232H64.74C65.484 21.232 66.128 21.088 66.672 20.8C67.224 20.504 67.652 20.1 67.956 19.588C68.26 19.068 68.412 18.472 68.412 17.8C68.412 17.12 68.26 16.524 67.956 16.012C67.652 15.5 67.224 15.1 66.672 14.812C66.128 14.516 65.484 14.368 64.74 14.368H62.256V21.232ZM74.9541 22.072C74.3221 22.072 73.7341 21.968 73.1901 21.76C72.6541 21.544 72.1861 21.244 71.7861 20.86C71.3941 20.468 71.0861 20.016 70.8621 19.504C70.6461 18.984 70.5381 18.416 70.5381 17.8C70.5381 17.184 70.6461 16.62 70.8621 16.108C71.0861 15.588 71.3941 15.136 71.7861 14.752C72.1861 14.36 72.6541 14.06 73.1901 13.852C73.7261 13.636 74.3141 13.528 74.9541 13.528C75.5861 13.528 76.1701 13.636 76.7061 13.852C77.2421 14.06 77.7061 14.356 78.0981 14.74C78.4981 15.124 78.8061 15.576 79.0221 16.096C79.2461 16.616 79.3581 17.184 79.3581 17.8C79.3581 18.416 79.2461 18.984 79.0221 19.504C78.8061 20.024 78.4981 20.476 78.0981 20.86C77.7061 21.244 77.2421 21.544 76.7061 21.76C76.1701 21.968 75.5861 22.072 74.9541 22.072ZM74.9541 21.28C75.4581 21.28 75.9221 21.196 76.3461 21.028C76.7781 20.852 77.1501 20.608 77.4621 20.296C77.7821 19.976 78.0301 19.608 78.2061 19.192C78.3821 18.768 78.4701 18.304 78.4701 17.8C78.4701 17.296 78.3821 16.836 78.2061 16.42C78.0301 15.996 77.7821 15.628 77.4621 15.316C77.1501 14.996 76.7781 14.752 76.3461 14.584C75.9221 14.408 75.4581 14.32 74.9541 14.32C74.4501 14.32 73.9821 14.408 73.5501 14.584C73.1181 14.752 72.7421 14.996 72.4221 15.316C72.1101 15.628 71.8621 15.996 71.6781 16.42C71.5021 16.836 71.4141 17.296 71.4141 17.8C71.4141 18.296 71.5021 18.756 71.6781 19.18C71.8621 19.604 72.1101 19.976 72.4221 20.296C72.7421 20.608 73.1181 20.852 73.5501 21.028C73.9821 21.196 74.4501 21.28 74.9541 21.28ZM82.9987 22L80.1667 13.6H81.0787L83.7307 21.508H83.2747L86.0107 13.6H86.8267L89.5267 21.508H89.0947L91.7707 13.6H92.6227L89.7907 22H88.8547L86.2747 14.5H86.5147L83.9227 22H82.9987ZM94.2508 22V13.6H94.9828L100.779 20.896H100.395V13.6H101.271V22H100.539L94.7548 14.704H95.1388V22H94.2508ZM104.013 22V13.6H104.901V21.232H109.605V22H104.013ZM114.587 22.072C113.955 22.072 113.367 21.968 112.823 21.76C112.287 21.544 111.819 21.244 111.419 20.86C111.027 20.468 110.719 20.016 110.495 19.504C110.279 18.984 110.171 18.416 110.171 17.8C110.171 17.184 110.279 16.62 110.495 16.108C110.719 15.588 111.027 15.136 111.419 14.752C111.819 14.36 112.287 14.06 112.823 13.852C113.359 13.636 113.947 13.528 114.587 13.528C115.219 13.528 115.803 13.636 116.339 13.852C116.875 14.06 117.339 14.356 117.731 14.74C118.131 15.124 118.439 15.576 118.655 16.096C118.879 16.616 118.991 17.184 118.991 17.8C118.991 18.416 118.879 18.984 118.655 19.504C118.439 20.024 118.131 20.476 117.731 20.86C117.339 21.244 116.875 21.544 116.339 21.76C115.803 21.968 115.219 22.072 114.587 22.072ZM114.587 21.28C115.091 21.28 115.555 21.196 115.979 21.028C116.411 20.852 116.783 20.608 117.095 20.296C117.415 19.976 117.663 19.608 117.839 19.192C118.015 18.768 118.103 18.304 118.103 17.8C118.103 17.296 118.015 16.836 117.839 16.42C117.663 15.996 117.415 15.628 117.095 15.316C116.783 14.996 116.411 14.752 115.979 14.584C115.555 14.408 115.091 14.32 114.587 14.32C114.083 14.32 113.615 14.408 113.183 14.584C112.751 14.752 112.375 14.996 112.055 15.316C111.743 15.628 111.495 15.996 111.311 16.42C111.135 16.836 111.047 17.296 111.047 17.8C111.047 18.296 111.135 18.756 111.311 19.18C111.495 19.604 111.743 19.976 112.055 20.296C112.375 20.608 112.751 20.852 113.183 21.028C113.615 21.196 114.083 21.28 114.587 21.28ZM119.52 22L123.36 13.6H124.236L128.076 22H127.14L123.612 14.116H123.972L120.444 22H119.52ZM121.032 19.756L121.296 19.036H126.18L126.444 19.756H121.032ZM129.466 22V13.6H132.886C133.782 13.6 134.566 13.78 135.238 14.14C135.918 14.492 136.446 14.984 136.822 15.616C137.198 16.248 137.386 16.976 137.386 17.8C137.386 18.624 137.198 19.352 136.822 19.984C136.446 20.616 135.918 21.112 135.238 21.472C134.566 21.824 133.782 22 132.886 22H129.466ZM130.354 21.232H132.838C133.582 21.232 134.226 21.088 134.77 20.8C135.322 20.504 135.75 20.1 136.054 19.588C136.358 19.068 136.51 18.472 136.51 17.8C136.51 17.12 136.358 16.524 136.054 16.012C135.75 15.5 135.322 15.1 134.77 14.812C134.226 14.516 133.582 14.368 132.838 14.368H130.354V21.232ZM146.192 22.072C145.56 22.072 144.972 21.968 144.428 21.76C143.892 21.544 143.424 21.244 143.024 20.86C142.632 20.468 142.324 20.016 142.1 19.504C141.884 18.984 141.776 18.416 141.776 17.8C141.776 17.184 141.884 16.62 142.1 16.108C142.324 15.588 142.632 15.136 143.024 14.752C143.424 14.36 143.892 14.06 144.428 13.852C144.964 13.636 145.552 13.528 146.192 13.528C146.824 13.528 147.408 13.636 147.944 13.852C148.48 14.06 148.944 14.356 149.336 14.74C149.736 15.124 150.044 15.576 150.26 16.096C150.484 16.616 150.596 17.184 150.596 17.8C150.596 18.416 150.484 18.984 150.26 19.504C150.044 20.024 149.736 20.476 149.336 20.86C148.944 21.244 148.48 21.544 147.944 21.76C147.408 21.968 146.824 22.072 146.192 22.072ZM146.192 21.28C146.696 21.28 147.16 21.196 147.584 21.028C148.016 20.852 148.388 20.608 148.7 20.296C149.02 19.976 149.268 19.608 149.444 19.192C149.62 18.768 149.708 18.304 149.708 17.8C149.708 17.296 149.62 16.836 149.444 16.42C149.268 15.996 149.02 15.628 148.7 15.316C148.388 14.996 148.016 14.752 147.584 14.584C147.16 14.408 146.696 14.32 146.192 14.32C145.688 14.32 145.22 14.408 144.788 14.584C144.356 14.752 143.98 14.996 143.66 15.316C143.348 15.628 143.1 15.996 142.916 16.42C142.74 16.836 142.652 17.296 142.652 17.8C142.652 18.296 142.74 18.756 142.916 19.18C143.1 19.604 143.348 19.976 143.66 20.296C143.98 20.608 144.356 20.852 144.788 21.028C145.22 21.196 145.688 21.28 146.192 21.28ZM152.587 22V13.6H153.319L159.115 20.896H158.731V13.6H159.607V22H158.875L153.091 14.704H153.475V22H152.587Z" fill="#F7F8FA"/>
<path d="M59.82 45L66.06 31H69.26L75.52 45H72.12L67 32.64H68.28L63.14 45H59.82ZM62.94 42L63.8 39.54H71L71.88 42H62.94ZM83.1125 45.16C82.2058 45.16 81.4125 44.96 80.7325 44.56C80.0525 44.16 79.5192 43.5533 79.1325 42.74C78.7592 41.9133 78.5725 40.8733 78.5725 39.62C78.5725 38.3533 78.7525 37.3133 79.1125 36.5C79.4725 35.6867 79.9925 35.08 80.6725 34.68C81.3525 34.28 82.1658 34.08 83.1125 34.08C84.1258 34.08 85.0325 34.3133 85.8325 34.78C86.6458 35.2333 87.2858 35.8733 87.7525 36.7C88.2325 37.5267 88.4725 38.5 88.4725 39.62C88.4725 40.7533 88.2325 41.7333 87.7525 42.56C87.2858 43.3867 86.6458 44.0267 85.8325 44.48C85.0325 44.9333 84.1258 45.16 83.1125 45.16ZM76.7525 48.88V34.24H79.7325V36.44L79.6725 39.64L79.8725 42.82V48.88H76.7525ZM82.5725 42.6C83.0925 42.6 83.5525 42.48 83.9525 42.24C84.3658 42 84.6925 41.66 84.9325 41.22C85.1858 40.7667 85.3125 40.2333 85.3125 39.62C85.3125 38.9933 85.1858 38.46 84.9325 38.02C84.6925 37.58 84.3658 37.24 83.9525 37C83.5525 36.76 83.0925 36.64 82.5725 36.64C82.0525 36.64 81.5858 36.76 81.1725 37C80.7592 37.24 80.4325 37.58 80.1925 38.02C79.9525 38.46 79.8325 38.9933 79.8325 39.62C79.8325 40.2333 79.9525 40.7667 80.1925 41.22C80.4325 41.66 80.7592 42 81.1725 42.24C81.5858 42.48 82.0525 42.6 82.5725 42.6ZM96.9211 45.16C96.0144 45.16 95.2211 44.96 94.5411 44.56C93.8611 44.16 93.3278 43.5533 92.9411 42.74C92.5678 41.9133 92.3811 40.8733 92.3811 39.62C92.3811 38.3533 92.5611 37.3133 92.9211 36.5C93.2811 35.6867 93.8011 35.08 94.4811 34.68C95.1611 34.28 95.9744 34.08 96.9211 34.08C97.9344 34.08 98.8411 34.3133 99.6411 34.78C100.454 35.2333 101.094 35.8733 101.561 36.7C102.041 37.5267 102.281 38.5 102.281 39.62C102.281 40.7533 102.041 41.7333 101.561 42.56C101.094 43.3867 100.454 44.0267 99.6411 44.48C98.8411 44.9333 97.9344 45.16 96.9211 45.16ZM90.5611 48.88V34.24H93.5411V36.44L93.4811 39.64L93.6811 42.82V48.88H90.5611ZM96.3811 42.6C96.9011 42.6 97.3611 42.48 97.7611 42.24C98.1744 42 98.5011 41.66 98.7411 41.22C98.9944 40.7667 99.1211 40.2333 99.1211 39.62C99.1211 38.9933 98.9944 38.46 98.7411 38.02C98.5011 37.58 98.1744 37.24 97.7611 37C97.3611 36.76 96.9011 36.64 96.3811 36.64C95.8611 36.64 95.3944 36.76 94.9811 37C94.5678 37.24 94.2411 37.58 94.0011 38.02C93.7611 38.46 93.6411 38.9933 93.6411 39.62C93.6411 40.2333 93.7611 40.7667 94.0011 41.22C94.2411 41.66 94.5678 42 94.9811 42.24C95.3944 42.48 95.8611 42.6 96.3811 42.6ZM104.37 45V30.16H107.49V45H104.37ZM115.725 45.16C114.499 45.16 113.419 44.92 112.485 44.44C111.565 43.96 110.852 43.3067 110.345 42.48C109.839 41.64 109.585 40.6867 109.585 39.62C109.585 38.54 109.832 37.5867 110.325 36.76C110.832 35.92 111.519 35.2667 112.385 34.8C113.252 34.32 114.232 34.08 115.325 34.08C116.379 34.08 117.325 34.3067 118.165 34.76C119.019 35.2 119.692 35.84 120.185 36.68C120.679 37.5067 120.925 38.5 120.925 39.66C120.925 39.78 120.919 39.92 120.905 40.08C120.892 40.2267 120.879 40.3667 120.865 40.5H112.125V38.68H119.225L118.025 39.22C118.025 38.66 117.912 38.1733 117.685 37.76C117.459 37.3467 117.145 37.0267 116.745 36.8C116.345 36.56 115.879 36.44 115.345 36.44C114.812 36.44 114.339 36.56 113.925 36.8C113.525 37.0267 113.212 37.3533 112.985 37.78C112.759 38.1933 112.645 38.6867 112.645 39.26V39.74C112.645 40.3267 112.772 40.8467 113.025 41.3C113.292 41.74 113.659 42.08 114.125 42.32C114.605 42.5467 115.165 42.66 115.805 42.66C116.379 42.66 116.879 42.5733 117.305 42.4C117.745 42.2267 118.145 41.9667 118.505 41.62L120.165 43.42C119.672 43.98 119.052 44.4133 118.305 44.72C117.559 45.0133 116.699 45.16 115.725 45.16ZM133.487 45.24C132.367 45.24 131.293 45.0933 130.267 44.8C129.24 44.4933 128.413 44.1 127.787 43.62L128.887 41.18C129.487 41.6067 130.193 41.96 131.007 42.24C131.833 42.5067 132.667 42.64 133.507 42.64C134.147 42.64 134.66 42.58 135.047 42.46C135.447 42.3267 135.74 42.1467 135.927 41.92C136.113 41.6933 136.207 41.4333 136.207 41.14C136.207 40.7667 136.06 40.4733 135.767 40.26C135.473 40.0333 135.087 39.8533 134.607 39.72C134.127 39.5733 133.593 39.44 133.007 39.32C132.433 39.1867 131.853 39.0267 131.267 38.84C130.693 38.6533 130.167 38.4133 129.687 38.12C129.207 37.8267 128.813 37.44 128.507 36.96C128.213 36.48 128.067 35.8667 128.067 35.12C128.067 34.32 128.28 33.5933 128.707 32.94C129.147 32.2733 129.8 31.7467 130.667 31.36C131.547 30.96 132.647 30.76 133.967 30.76C134.847 30.76 135.713 30.8667 136.567 31.08C137.42 31.28 138.173 31.5867 138.827 32L137.827 34.46C137.173 34.0867 136.52 33.8133 135.867 33.64C135.213 33.4533 134.573 33.36 133.947 33.36C133.32 33.36 132.807 33.4333 132.407 33.58C132.007 33.7267 131.72 33.92 131.547 34.16C131.373 34.3867 131.287 34.6533 131.287 34.96C131.287 35.32 131.433 35.6133 131.727 35.84C132.02 36.0533 132.407 36.2267 132.887 36.36C133.367 36.4933 133.893 36.6267 134.467 36.76C135.053 36.8933 135.633 37.0467 136.207 37.22C136.793 37.3933 137.327 37.6267 137.807 37.92C138.287 38.2133 138.673 38.6 138.967 39.08C139.273 39.56 139.427 40.1667 139.427 40.9C139.427 41.6867 139.207 42.4067 138.767 43.06C138.327 43.7133 137.667 44.24 136.787 44.64C135.92 45.04 134.82 45.24 133.487 45.24ZM145.82 45.16C144.554 45.16 143.567 44.84 142.86 44.2C142.154 43.5467 141.8 42.58 141.8 41.3V31.86H144.92V41.26C144.92 41.7133 145.04 42.0667 145.28 42.32C145.52 42.56 145.847 42.68 146.26 42.68C146.754 42.68 147.174 42.5467 147.52 42.28L148.36 44.48C148.04 44.7067 147.654 44.88 147.2 45C146.76 45.1067 146.3 45.16 145.82 45.16ZM140.14 36.64V34.24H147.6V36.64H140.14ZM154.9 45.16C153.753 45.16 152.733 44.92 151.84 44.44C150.96 43.96 150.26 43.3067 149.74 42.48C149.233 41.64 148.98 40.6867 148.98 39.62C148.98 38.54 149.233 37.5867 149.74 36.76C150.26 35.92 150.96 35.2667 151.84 34.8C152.733 34.32 153.753 34.08 154.9 34.08C156.033 34.08 157.047 34.32 157.94 34.8C158.833 35.2667 159.533 35.9133 160.04 36.74C160.547 37.5667 160.8 38.5267 160.8 39.62C160.8 40.6867 160.547 41.64 160.04 42.48C159.533 43.3067 158.833 43.96 157.94 44.44C157.047 44.92 156.033 45.16 154.9 45.16ZM154.9 42.6C155.42 42.6 155.887 42.48 156.3 42.24C156.713 42 157.04 41.66 157.28 41.22C157.52 40.7667 157.64 40.2333 157.64 39.62C157.64 38.9933 157.52 38.46 157.28 38.02C157.04 37.58 156.713 37.24 156.3 37C155.887 36.76 155.42 36.64 154.9 36.64C154.38 36.64 153.913 36.76 153.5 37C153.087 37.24 152.753 37.58 152.5 38.02C152.26 38.46 152.14 38.9933 152.14 39.62C152.14 40.2333 152.26 40.7667 152.5 41.22C152.753 41.66 153.087 42 153.5 42.24C153.913 42.48 154.38 42.6 154.9 42.6ZM162.885 45V34.24H165.865V37.28L165.445 36.4C165.765 35.64 166.279 35.0667 166.985 34.68C167.692 34.28 168.552 34.08 169.565 34.08V36.96C169.432 36.9467 169.312 36.94 169.205 36.94C169.099 36.9267 168.985 36.92 168.865 36.92C168.012 36.92 167.319 37.1667 166.785 37.66C166.265 38.14 166.005 38.8933 166.005 39.92V45H162.885ZM176.663 45.16C175.436 45.16 174.356 44.92 173.423 44.44C172.503 43.96 171.789 43.3067 171.283 42.48C170.776 41.64 170.523 40.6867 170.523 39.62C170.523 38.54 170.769 37.5867 171.263 36.76C171.769 35.92 172.456 35.2667 173.323 34.8C174.189 34.32 175.169 34.08 176.263 34.08C177.316 34.08 178.263 34.3067 179.103 34.76C179.956 35.2 180.629 35.84 181.123 36.68C181.616 37.5067 181.863 38.5 181.863 39.66C181.863 39.78 181.856 39.92 181.843 40.08C181.829 40.2267 181.816 40.3667 181.803 40.5H173.063V38.68H180.163L178.963 39.22C178.963 38.66 178.849 38.1733 178.623 37.76C178.396 37.3467 178.083 37.0267 177.683 36.8C177.283 36.56 176.816 36.44 176.283 36.44C175.749 36.44 175.276 36.56 174.863 36.8C174.463 37.0267 174.149 37.3533 173.923 37.78C173.696 38.1933 173.583 38.6867 173.583 39.26V39.74C173.583 40.3267 173.709 40.8467 173.963 41.3C174.229 41.74 174.596 42.08 175.063 42.32C175.543 42.5467 176.103 42.66 176.743 42.66C177.316 42.66 177.816 42.5733 178.243 42.4C178.683 42.2267 179.083 41.9667 179.443 41.62L181.103 43.42C180.609 43.98 179.989 44.4133 179.243 44.72C178.496 45.0133 177.636 45.16 176.663 45.16Z" fill="#F7F8FA"/>
</svg>
