<svg width="456" height="416" viewBox="0 0 456 416" fill="none" xmlns="http://www.w3.org/2000/svg">
<path d="M237.235 27.0722C177.751 -0.918167 139.191 40.3704 127.925 67.8341L126.033 74.0856C130.089 128.261 75.0062 148.025 45.715 150.095C0.65142 159.575 0.27588 205.774 7.41094 225.714C18.9213 257.88 30.3182 280.453 32.7592 290.611C30.0554 341.626 35.3879 362.656 38.3921 366.794C70.8379 425.484 128.519 411.94 153.304 397.832C196.565 364.876 231.414 367.547 243.431 373.002C286.692 403.701 325.672 405.733 339.754 402.911C412.757 378.532 399.839 319.767 384.255 293.432C364.877 241.966 392.329 191.102 408.476 172.103C453.54 103.03 429.882 61.3078 412.419 49.0808C394.394 27.4108 341.444 48.1403 312.153 62.0602C291.311 68.2678 248.876 38.7349 237.235 27.0722Z" fill="#B88A2F"/>
<path d="M246.333 13.6971C184.529 -15.3824 144.464 27.5128 132.759 56.0451L130.793 62.5398C135.007 118.823 77.776 139.357 47.3421 141.506C0.520798 151.356 0.130609 199.353 7.54399 220.068C19.5033 253.486 31.3448 276.937 33.881 287.49C31.0717 340.49 36.6122 362.339 39.7336 366.638C73.445 427.611 133.376 413.541 159.128 398.884C204.077 364.645 240.285 367.42 252.771 373.087C297.719 404.981 338.22 407.091 352.851 404.16C428.702 378.833 415.28 317.781 399.087 290.422C378.954 236.953 407.476 184.109 424.254 164.371C471.075 92.6105 446.494 49.2648 428.351 36.562C409.622 14.0489 354.607 35.585 324.173 50.0465C302.518 56.4957 258.428 25.8136 246.333 13.6971Z" stroke="#D6A84C" stroke-width="8"/>
<path d="M189.558 237.62V236.235C189.593 229.807 190.197 224.694 191.369 220.894C192.576 217.094 194.281 214.04 196.482 211.732C198.684 209.388 201.365 207.24 204.526 205.287C206.692 203.937 208.627 202.464 210.332 200.865C212.072 199.232 213.439 197.421 214.433 195.432C215.428 193.408 215.925 191.153 215.925 188.667C215.925 185.862 215.268 183.429 213.954 181.37C212.64 179.31 210.865 177.712 208.627 176.576C206.426 175.439 203.958 174.871 201.223 174.871C198.702 174.871 196.305 175.422 194.032 176.522C191.795 177.588 189.931 179.221 188.439 181.423C186.983 183.589 186.166 186.341 185.989 189.679H167.026C167.203 182.932 168.837 177.286 171.926 172.741C175.051 168.195 179.171 164.786 184.284 162.513C189.433 160.24 195.115 159.104 201.33 159.104C208.112 159.104 214.078 160.294 219.227 162.673C224.412 165.052 228.443 168.444 231.319 172.847C234.231 177.215 235.687 182.4 235.687 188.401C235.687 192.449 235.03 196.071 233.716 199.267C232.438 202.464 230.609 205.304 228.23 207.79C225.85 210.276 223.027 212.495 219.76 214.449C216.884 216.224 214.522 218.071 212.676 219.988C210.865 221.906 209.515 224.161 208.627 226.753C207.775 229.31 207.331 232.471 207.296 236.235V237.62H189.558ZM198.826 270.858C195.63 270.858 192.878 269.722 190.57 267.449C188.262 265.177 187.107 262.407 187.107 259.14C187.107 255.944 188.262 253.209 190.57 250.937C192.878 248.664 195.63 247.527 198.826 247.527C201.987 247.527 204.721 248.664 207.029 250.937C209.373 253.209 210.545 255.944 210.545 259.14C210.545 261.306 209.995 263.277 208.894 265.052C207.828 266.828 206.408 268.248 204.632 269.314C202.892 270.343 200.957 270.858 198.826 270.858Z" fill="white"/>
</svg>
