<svg width="120" height="120" viewBox="0 0 120 120" fill="none" xmlns="http://www.w3.org/2000/svg">
<circle cx="60.0002" cy="60" r="60" fill="#0F7B6C"/>
<path d="M103 60C103 83.7482 83.7485 103 60.0002 103C36.252 103 17.0002 83.7482 17.0002 60C17.0002 36.2518 36.252 17 60.0002 17C83.7485 17 103 36.2518 103 60Z" fill="white"/>
<circle cx="60.0002" cy="60" r="19.5" stroke="#D6A84C"/>
<path d="M51.0002 60C55.9708 60 60.0002 55.9706 60.0002 51C60.0002 55.9706 64.0296 60 69.0002 60C64.0296 60 60.0002 64.0294 60.0002 69C60.0002 64.0294 55.9708 60 51.0002 60Z" stroke="#D6A84C" stroke-width="1.5" stroke-linejoin="round"/>
<path d="M36.3752 18.5C38.6534 18.5 40.5002 16.6532 40.5002 14.375C40.5002 16.6532 42.3471 18.5 44.6252 18.5C42.3471 18.5 40.5002 20.3468 40.5002 22.625C40.5002 20.3468 38.6534 18.5 36.3752 18.5Z" fill="white" stroke="white" stroke-width="1.5" stroke-linejoin="round"/>
</svg>
