<svg width="45" height="45" viewBox="0 0 45 45" fill="none" xmlns="http://www.w3.org/2000/svg">
<path d="M22.5 43.5938C34.1498 43.5938 43.5938 34.1498 43.5938 22.5C43.5938 10.8502 34.1498 1.40625 22.5 1.40625C10.8502 1.40625 1.40625 10.8502 1.40625 22.5C1.40625 34.1498 10.8502 43.5938 22.5 43.5938Z" fill="#006C35"/>
<path d="M22.2891 18.7734C22.2188 18.1406 22.5703 17.5078 23.2031 17.6484C23.6953 17.7188 24.2578 18.2109 23.9766 18.7031C23.5547 19.4766 22.4297 19.4766 21.7266 19.8984C21.7969 20.3203 23.8359 19.8281 24.1875 19.8281C24.5391 19.8281 24.8906 19.9688 24.6797 20.3906C24.4688 20.8125 23.7656 20.8125 23.3438 20.8828C22.9219 20.9531 22.2188 20.9531 22.0078 21.3047C21.5859 21.8672 22.4297 21.9375 22.7109 22.0781C23.4141 22.4297 22.2891 22.7813 22.0078 22.7109C20.9531 22.5 20.7422 21.9375 20.1094 21.2344C19.4766 22.0781 17.5078 23.9766 17.0859 22.0078C16.3828 22.2891 15.6797 22.6406 14.9062 22.7109C15.2578 22.2188 15.9609 22.0078 16.5234 21.7266C17.2266 21.375 17.2266 20.7422 17.6484 20.1797C17.7891 20.3906 17.6484 20.6719 17.7188 20.9531C18.2813 20.6719 18.9844 20.1094 18.7031 19.4063C18.7031 19.3359 17.8594 17.6484 18.5625 17.9297C19.1953 18.2109 18.9844 18.8438 19.125 19.3359C19.3359 20.25 18.9141 20.7422 18.2109 21.3047C17.9297 21.5156 17.1563 22.3594 18.0703 22.3594C18.7031 22.3594 19.2656 21.6563 19.6172 21.2344C20.0391 20.6719 19.8984 20.1094 19.6172 19.4766C19.4063 18.9844 18.9141 17.9297 19.5469 17.5781C20.0391 18.3516 20.25 19.2656 20.4609 20.1797C20.6016 20.9531 20.7422 21.7266 21.5859 21.9375C21.5156 21.375 21.8672 20.9531 22.3594 20.7422C22.0078 20.4609 20.0391 20.8125 20.8125 19.7578C20.8828 19.2656 22.2891 19.0547 22.2891 18.7734Z" fill="#F2F2F2"/>
<path d="M11.5313 21.375C11.8828 22.3594 13.0781 22.0078 13.7812 21.7266C14.9062 21.1641 14.9062 20.3203 14.9062 19.1953C14.4844 19.4063 14.5547 20.1797 14.4141 20.5313C14.1328 21.0938 13.2187 21.5859 12.5859 21.5156C11.6719 21.375 11.25 19.8281 11.9531 19.2656C12.0938 19.7578 11.7422 20.8125 12.5859 20.8828C13.2187 20.9531 14.4844 20.1797 14.2734 19.4766C13.4297 19.7578 12.9375 19.4766 13.2187 18.5625C13.4297 17.7188 14.2734 18.3516 14.625 18.7734C15.9609 18 13.5703 15.0469 14.9766 14.2734C15.2578 14.7656 15.6797 15.3984 15.3281 15.8906C14.9062 16.4531 15.3281 17.6484 15.3984 18.2813C16.1016 17.6484 15.5391 18.7734 16.1016 18.8438C16.4531 18.9141 16.5937 18 16.8047 18C16.875 18.2109 16.875 18.8438 17.2266 18.7734C17.6484 18.6328 17.1562 18.0703 17.5781 17.9297C17.7187 18.2813 17.6484 19.3359 17.1562 19.2656C16.7344 19.1953 16.8047 18.9141 16.3125 19.1953C15.8906 19.4063 15.75 19.1953 15.4687 18.9844C15.3984 19.8281 15.6797 20.7422 15.1875 21.5156C14.7656 22.1484 13.9219 22.5 13.2187 22.6406C11.3906 22.9922 10.8984 21.1641 11.5313 19.6875C11.6719 20.1094 11.3906 20.8828 11.5313 21.375Z" fill="#F2F2F2"/>
<path d="M28.6875 21.7266C29.0391 22.6406 29.7422 20.7422 29.9531 20.4609C30.5156 19.6172 31.3594 21.7969 31.7109 20.3906C31.9219 19.4766 31.6406 18.5625 31.5703 17.6484C31.5 17.0156 31.2891 16.4531 30.8672 15.9609C30.4453 15.3984 30.0234 14.9063 30.2344 14.2031C30.9375 14.4844 30.9375 15.0469 31.2891 15.6094C31.3594 15.1875 31.0781 14.625 31.3594 14.2734C31.7109 13.7813 31.9922 15.1172 31.9922 15.2578C32.0625 15.6094 31.7109 15.75 31.9219 16.3125C32.0625 16.7344 32.3437 17.1563 32.625 17.5078C32.5547 17.0859 31.9219 14.2031 32.625 14.2031C32.8359 14.2031 33.0469 15.0469 33.0469 15.1875C33.1875 15.6094 32.9062 15.9609 32.9062 16.4531C32.8359 17.2969 32.9766 18.2813 33.5391 18.9141C33.8203 19.2656 34.875 20.5313 34.3125 20.9531C33.8906 20.4609 33.6094 19.8984 33.2578 19.4063C33.2578 19.9688 33.3984 20.6016 33.1172 21.0234C32.8359 20.8828 32.9766 19.9688 32.9766 19.7578C32.9766 18.9844 32.4844 18.3516 32.0625 17.7188C31.9219 18.7734 32.7656 20.7422 31.7812 21.5156C31.1484 22.0781 30.3047 20.8125 30.0937 21.3047C29.8828 21.6563 29.3906 22.9219 28.8281 22.7813C28.125 22.6406 27.6328 20.6719 28.4062 20.4609C28.4766 20.8125 28.4766 21.3047 28.6875 21.7266Z" fill="#F2F2F2"/>
<path d="M13.6406 16.9453C14.1328 17.0156 13.6406 15.3281 13.6406 15.0469C13.7109 14.7656 13.9219 14.625 14.0625 14.9063C14.2734 15.3281 14.2734 15.8203 14.3437 16.2422C14.3437 16.5938 14.4141 17.0156 14.1328 17.2969C13.7109 17.7188 13.1484 17.5078 12.9375 16.9453C11.9531 17.7891 13.2187 19.2656 12.375 20.1094C12.2344 19.3359 12.375 18.4922 12.0937 17.7891C11.9531 17.4375 11.3203 17.5781 11.25 16.9453C11.25 16.6641 11.4609 15.8906 11.1797 15.6797C11.0391 15.9609 10.8984 18.1406 10.1953 17.5078C9.63281 17.0859 9.77343 15.6797 9.98437 15.1172C10.4062 15.3281 9.91406 16.875 10.4766 16.9453C10.7578 17.0156 10.8281 15.8203 10.8984 15.6094C11.1094 15.2578 11.8125 14.2734 11.6719 15.2578C11.6016 15.6797 11.25 17.0156 12.0937 16.9453C12.0234 16.2422 11.9531 15.5391 11.8125 14.8359C11.7422 14.4844 11.9531 13.7812 12.2344 14.4141C12.4453 14.8359 12.3047 15.0469 12.2344 15.4688C12.1641 15.9609 12.375 16.4531 12.4453 16.875C12.8672 16.5234 12.3047 15.1875 12.6562 14.625C13.5 15.1172 12.5859 16.8047 13.6406 16.9453Z" fill="#F2F2F2"/>
<path d="M22.7109 17.0859C22.3593 17.5781 21.7265 17.1563 21.4453 16.8047C21.0937 17.2266 20.3906 17.9297 19.8281 17.3672C19.4062 16.9453 19.8984 16.1719 19.5468 15.8203C19.3359 16.1719 18.9843 17.8594 18.3515 17.0859C17.9999 16.6641 17.5078 15.1875 18.2812 14.8359C18.2109 15.3984 18.0703 16.0313 18.4218 16.5234C18.7734 17.0156 19.1249 15.75 19.2656 15.4688C19.4765 14.9766 20.1796 14.1328 20.039 15.1875C19.9687 15.6094 19.8281 16.5938 20.2499 16.875C20.5312 17.0859 20.8828 16.7344 21.0234 16.5234C21.3046 16.1719 21.164 15.6094 21.0937 15.1875C21.0234 14.8359 20.8828 14.4141 21.0937 14.0625C21.3749 13.6406 21.5859 14.625 21.5859 14.8359C21.5859 15.0469 21.8671 17.2266 22.3593 16.5234C22.8515 15.8906 21.5156 14.4844 22.4296 14.1328C22.7812 13.9922 23.414 15.3984 22.7109 14.9766C22.9218 15.6094 23.2031 16.5234 22.7109 17.0859Z" fill="#F2F2F2"/>
<path d="M25.3828 17.9297C25.4531 18.8438 26.2266 21.375 25.1719 21.9375C25.0312 21.6563 25.1719 21.2344 25.2422 20.8828C25.3125 20.25 25.1719 19.6172 25.1016 19.0547C24.9609 17.7188 24.8203 16.7344 23.9063 15.6797C23.6953 15.3984 23.3437 15.1875 23.2734 14.7656C23.2734 14.625 23.2031 13.9922 23.4844 14.1328C23.6953 14.2031 24.8906 15.2578 24.2578 15.2578C24.3281 15.3984 24.6094 15.9609 24.75 15.9609C24.75 15.6094 24.3281 14.5547 24.75 14.3438C25.1016 14.1328 25.5234 15.4688 25.3828 15.75C25.2422 16.1016 25.2422 16.3125 25.3828 16.8047C25.5234 17.3672 25.875 17.8594 26.1563 18.3516C26.5781 19.0547 27.4219 20.0391 27.2109 20.9531C26.7891 20.7422 26.5078 19.7578 26.2969 19.3359C26.1563 18.9844 26.0156 18.6328 25.8047 18.3516C25.7344 18.2813 25.3125 17.7188 25.3828 18.0703V17.9297Z" fill="#F2F2F2"/>
<path d="M35.1563 19.2654C35.2266 20.742 34.7344 22.6404 32.9062 22.6404C32.9062 22.2186 33.8203 21.7967 34.1016 21.5857C34.8047 21.0232 34.7344 19.9686 34.6641 19.1951C34.5938 18.1404 34.5234 17.0857 34.3125 16.0311C34.2422 15.3982 33.8906 14.4842 34.4531 14.0623C34.8047 14.3436 35.2969 15.117 35.0859 15.3982C34.7344 15.8201 35.0859 18.9842 35.1563 19.2654Z" fill="#F2F2F2"/>
<path d="M26.1563 22.4297C27.9844 21.375 27.4219 19.125 27.2813 17.3672C27.2109 16.875 27.2109 16.3828 27.1406 15.8906C27.1406 15.5391 26.8594 15.0469 27 14.6953C27.3516 13.7812 27.6328 14.625 27.7031 15.1875C27.7734 15.5391 27.4922 15.6094 27.5625 15.8906C27.6328 16.4531 27.6328 17.0156 27.7031 17.5781C27.7734 18.4922 27.9141 19.4062 27.8438 20.25C27.7031 21.5859 27 23.0625 25.3828 22.7813C25.4531 22.6406 25.9453 22.5703 26.1563 22.4297Z" fill="#F2F2F2"/>
<path d="M29.1094 18.9141C29.1797 19.6172 29.4609 20.8828 29.1094 21.5156C28.8281 21.9375 28.8281 21.2344 28.7578 21.1641C28.6875 20.6016 28.6875 20.0391 28.6875 19.4063C28.5469 17.8594 28.0547 16.3125 28.0547 14.8359C28.0547 12.9375 29.6719 15.8906 28.7578 15.75C28.8281 16.8047 28.9688 17.8594 29.1094 18.9141Z" fill="#F2F2F2"/>
<path d="M17.6484 15.3281C17.7891 15.6797 16.0312 16.5938 15.8203 16.5938C15.75 16.2422 16.5937 15.75 16.8047 15.6094C17.0156 15.3984 17.1562 15.3984 17.0859 15.1172C16.9453 14.8359 17.0156 14.3438 17.3672 14.2031C18.0703 13.9922 17.5781 15.0469 17.6484 15.3281Z" fill="#F2F2F2"/>
<path d="M10.4063 21.5859C10.4063 22.1484 10.6172 21.8672 10.8984 21.7266C11.0391 22.0078 10.6875 22.7813 10.3359 22.4297C9.84375 21.9375 10.2656 20.8125 10.4766 20.3203C10.6172 20.6719 10.3359 21.2344 10.4063 21.5859Z" fill="#F2F2F2"/>
<path d="M30.2343 17.2266C30.3046 16.9453 30.0937 16.6641 30.3046 16.3828C30.5859 16.0313 30.8671 16.4531 30.7265 16.5938C30.5859 16.7344 30.3749 16.4531 30.3749 16.875C30.3749 17.0859 30.5156 17.5078 30.3046 17.7188C30.164 17.6484 29.5312 16.7344 29.6015 16.5938C29.8828 16.3125 30.164 17.1563 30.2343 17.2266Z" fill="#F2F2F2"/>
<path d="M11.8828 18.4219C11.7422 18.7031 10.125 19.6172 10.0547 19.4063C10.0547 19.1953 12.0938 18 11.8828 18.4219Z" fill="#F2F2F2"/>
<path d="M23.836 22.0078C23.625 22.6406 24.5391 22.0781 24.75 22.0078C24.4688 22.5 23.4844 22.9219 23.625 22.0078C23.5547 22.0078 23.4141 22.0781 23.3438 22.0781C23.2032 21.9375 24.0469 21.375 23.836 22.0078Z" fill="#F2F2F2"/>
<path d="M31.5 21.7969C31.7109 21.7969 32.0625 22.4297 31.8515 22.5703C31.7109 22.7109 31.0781 22.7813 31.4296 22.5C31.8515 22.0781 31.5 21.7969 31.5 21.7969Z" fill="#F2F2F2"/>
<path d="M21.5859 18.2109C21.6562 18.0703 21.6562 17.8594 21.7265 17.7188C22.4297 18.2812 20.6015 19.1953 20.9531 17.8594C21.0937 18 21.0937 18.2109 21.2344 18.2812C21.2344 18.1406 21.3047 17.9297 21.3047 17.7891C21.4453 17.9297 21.4453 18.1406 21.5859 18.2109Z" fill="#F2F2F2"/>
<path d="M29.8124 19.125C29.6015 18.8438 30.8671 18.0703 31.0781 17.9297C31.2187 18.1406 30.2343 18.9141 29.8124 19.125Z" fill="#F2F2F2"/>
<path d="M33.7494 16.3125C33.6091 15.8906 33.188 15.0469 33.6091 14.6953C33.8898 14.9062 34.0302 15.9609 33.7494 16.3125Z" fill="#F2F2F2"/>
<path d="M26.0859 14.9063C26.0156 14.7656 25.8047 14.625 25.8047 14.4141C25.875 14.1328 26.0156 14.2031 26.1563 14.3437C26.3672 14.625 26.5078 15.3984 26.1563 15.6094C26.1563 15.3984 26.2266 15.1172 26.0859 14.9063Z" fill="#F2F2F2"/>
<path d="M17.5079 16.8047C17.5079 17.2266 16.8047 17.6484 16.7344 17.0859C16.6641 16.875 17.0157 16.1016 17.1563 16.3125C16.875 16.9453 16.875 17.1562 17.5079 16.8047Z" fill="#F2F2F2"/>
<path d="M26.2969 16.0313C26.5782 16.7344 26.4375 16.1016 26.7188 15.9609C27.211 16.875 25.6641 16.6641 26.0157 16.1016C26.086 16.1719 26.1563 16.3125 26.1563 16.3828C26.2266 16.3125 26.2266 16.1719 26.2969 16.0313Z" fill="#F2F2F2"/>
<path d="M30.7966 19.2656C30.4458 18.9844 30.8668 18.6328 31.0774 18.9844C31.2177 19.1953 31.2177 19.7578 30.937 19.8984C30.937 19.6875 31.0072 19.4063 30.7966 19.2656Z" fill="#F2F2F2"/>
<path d="M16.3828 20.8125C16.3828 20.6719 16.3126 19.6172 16.5232 19.7578C16.8039 19.8984 16.7337 20.6719 16.3828 20.8125Z" fill="#F2F2F2"/>
<path d="M13.4296 14.2031C13.4999 14.4141 13.5703 14.6953 13.7109 14.3437C14.2734 14.9766 12.3046 14.7656 13.0078 14.1328C13.0078 14.2031 13.1484 14.625 13.4296 14.2031Z" fill="#F2F2F2"/>
<path d="M20.6012 15.75C20.6012 15.4688 20.1801 14.2734 20.531 14.2734C20.9521 14.3438 20.8819 15.3984 20.6012 15.75Z" fill="#F2F2F2"/>
<path d="M10.7575 15.117C10.5469 15.0467 10.8978 14.6951 10.7575 14.4139C10.6171 14.4842 10.4767 14.2733 10.6171 14.1326C11.1785 13.7108 10.968 15.117 10.7575 15.117Z" fill="#F2F2F2"/>
<path d="M28.9688 29.3906L28.6875 28.5469L28.4063 29.3906H13.0078C13.0078 29.3906 13.1484 30.6563 14.6953 30.6563H28.3359V31.6406H32.0625V29.3906H28.9688ZM31.3594 31.0781H28.8281V30.375H31.3594V31.0781Z" fill="#F2F2F2"/>
</svg>
