<svg width="211" height="60" viewBox="0 0 211 60" fill="none" xmlns="http://www.w3.org/2000/svg">
<rect width="211" height="60" rx="16" fill="#111827"/>
<g clip-path="url(#clip0_10_4220)">
<path d="M39.8726 23.7205C35.2259 21.1216 27.7678 16.9482 16.1996 10.4709C15.4197 9.95583 14.5224 9.88833 13.747 10.1508L33.5947 29.9984L39.8726 23.7205Z" fill="#32BBFF"/>
<path d="M13.747 10.1508C13.6017 10.2 13.4603 10.2594 13.3251 10.3311C12.4689 10.7942 11.8398 11.6854 11.8398 12.8125V47.1844C11.8398 48.3115 12.4688 49.2027 13.3251 49.6658C13.4601 49.7374 13.6014 49.797 13.7466 49.8465L33.5947 29.9985L13.747 10.1508Z" fill="#32BBFF"/>
<path d="M33.5947 29.9985L13.7466 49.8466C14.5221 50.1109 15.4195 50.0486 16.1996 49.526C27.4182 43.244 34.7923 39.1201 39.4928 36.499C39.6236 36.4254 39.7519 36.3536 39.8786 36.2824L33.5947 29.9985Z" fill="#32BBFF"/>
<path d="M11.8398 29.9985V47.1844C11.8398 48.3116 12.4688 49.2027 13.3251 49.6658C13.4601 49.7374 13.6014 49.797 13.7466 49.8466L33.5947 29.9985H11.8398Z" fill="#2C9FD9"/>
<path d="M16.1996 10.4709C15.2734 9.85937 14.1813 9.87679 13.3251 10.3312L33.2935 30.2996L39.8726 23.7206C35.2259 21.1216 27.7678 16.9482 16.1996 10.4709Z" fill="#29CC5E"/>
<path d="M33.2936 29.6974L13.3251 49.6658C14.1813 50.1201 15.2734 50.1463 16.1996 49.526C27.4182 43.244 34.7923 39.1201 39.4928 36.499C39.6236 36.4254 39.7519 36.3536 39.8786 36.2824L33.2936 29.6974Z" fill="#D93F21"/>
<path d="M48.1602 29.9985C48.1602 29.0461 47.6797 28.085 46.7273 27.552C46.7273 27.552 44.9461 26.5582 39.4865 23.5045L32.9925 29.9985L39.4928 36.4989C44.8925 33.4671 46.7272 32.4448 46.7272 32.4448C47.6797 31.9119 48.1602 30.9508 48.1602 29.9985Z" fill="#FFD500"/>
<path d="M46.7273 32.4449C47.6797 31.9119 48.1602 30.9508 48.1602 29.9985H32.9925L39.4928 36.4989C44.8926 33.4672 46.7273 32.4449 46.7273 32.4449Z" fill="#FFAA00"/>
</g>
<path d="M61.368 22V13.6H64.788C65.684 13.6 66.468 13.78 67.14 14.14C67.82 14.492 68.348 14.984 68.724 15.616C69.1 16.248 69.288 16.976 69.288 17.8C69.288 18.624 69.1 19.352 68.724 19.984C68.348 20.616 67.82 21.112 67.14 21.472C66.468 21.824 65.684 22 64.788 22H61.368ZM62.256 21.232H64.74C65.484 21.232 66.128 21.088 66.672 20.8C67.224 20.504 67.652 20.1 67.956 19.588C68.26 19.068 68.412 18.472 68.412 17.8C68.412 17.12 68.26 16.524 67.956 16.012C67.652 15.5 67.224 15.1 66.672 14.812C66.128 14.516 65.484 14.368 64.74 14.368H62.256V21.232ZM74.9541 22.072C74.3221 22.072 73.7341 21.968 73.1901 21.76C72.6541 21.544 72.1861 21.244 71.7861 20.86C71.3941 20.468 71.0861 20.016 70.8621 19.504C70.6461 18.984 70.5381 18.416 70.5381 17.8C70.5381 17.184 70.6461 16.62 70.8621 16.108C71.0861 15.588 71.3941 15.136 71.7861 14.752C72.1861 14.36 72.6541 14.06 73.1901 13.852C73.7261 13.636 74.3141 13.528 74.9541 13.528C75.5861 13.528 76.1701 13.636 76.7061 13.852C77.2421 14.06 77.7061 14.356 78.0981 14.74C78.4981 15.124 78.8061 15.576 79.0221 16.096C79.2461 16.616 79.3581 17.184 79.3581 17.8C79.3581 18.416 79.2461 18.984 79.0221 19.504C78.8061 20.024 78.4981 20.476 78.0981 20.86C77.7061 21.244 77.2421 21.544 76.7061 21.76C76.1701 21.968 75.5861 22.072 74.9541 22.072ZM74.9541 21.28C75.4581 21.28 75.9221 21.196 76.3461 21.028C76.7781 20.852 77.1501 20.608 77.4621 20.296C77.7821 19.976 78.0301 19.608 78.2061 19.192C78.3821 18.768 78.4701 18.304 78.4701 17.8C78.4701 17.296 78.3821 16.836 78.2061 16.42C78.0301 15.996 77.7821 15.628 77.4621 15.316C77.1501 14.996 76.7781 14.752 76.3461 14.584C75.9221 14.408 75.4581 14.32 74.9541 14.32C74.4501 14.32 73.9821 14.408 73.5501 14.584C73.1181 14.752 72.7421 14.996 72.4221 15.316C72.1101 15.628 71.8621 15.996 71.6781 16.42C71.5021 16.836 71.4141 17.296 71.4141 17.8C71.4141 18.296 71.5021 18.756 71.6781 19.18C71.8621 19.604 72.1101 19.976 72.4221 20.296C72.7421 20.608 73.1181 20.852 73.5501 21.028C73.9821 21.196 74.4501 21.28 74.9541 21.28ZM82.9987 22L80.1667 13.6H81.0787L83.7307 21.508H83.2747L86.0107 13.6H86.8267L89.5267 21.508H89.0947L91.7707 13.6H92.6227L89.7907 22H88.8547L86.2747 14.5H86.5147L83.9227 22H82.9987ZM94.2508 22V13.6H94.9828L100.779 20.896H100.395V13.6H101.271V22H100.539L94.7548 14.704H95.1388V22H94.2508ZM104.013 22V13.6H104.901V21.232H109.605V22H104.013ZM114.587 22.072C113.955 22.072 113.367 21.968 112.823 21.76C112.287 21.544 111.819 21.244 111.419 20.86C111.027 20.468 110.719 20.016 110.495 19.504C110.279 18.984 110.171 18.416 110.171 17.8C110.171 17.184 110.279 16.62 110.495 16.108C110.719 15.588 111.027 15.136 111.419 14.752C111.819 14.36 112.287 14.06 112.823 13.852C113.359 13.636 113.947 13.528 114.587 13.528C115.219 13.528 115.803 13.636 116.339 13.852C116.875 14.06 117.339 14.356 117.731 14.74C118.131 15.124 118.439 15.576 118.655 16.096C118.879 16.616 118.991 17.184 118.991 17.8C118.991 18.416 118.879 18.984 118.655 19.504C118.439 20.024 118.131 20.476 117.731 20.86C117.339 21.244 116.875 21.544 116.339 21.76C115.803 21.968 115.219 22.072 114.587 22.072ZM114.587 21.28C115.091 21.28 115.555 21.196 115.979 21.028C116.411 20.852 116.783 20.608 117.095 20.296C117.415 19.976 117.663 19.608 117.839 19.192C118.015 18.768 118.103 18.304 118.103 17.8C118.103 17.296 118.015 16.836 117.839 16.42C117.663 15.996 117.415 15.628 117.095 15.316C116.783 14.996 116.411 14.752 115.979 14.584C115.555 14.408 115.091 14.32 114.587 14.32C114.083 14.32 113.615 14.408 113.183 14.584C112.751 14.752 112.375 14.996 112.055 15.316C111.743 15.628 111.495 15.996 111.311 16.42C111.135 16.836 111.047 17.296 111.047 17.8C111.047 18.296 111.135 18.756 111.311 19.18C111.495 19.604 111.743 19.976 112.055 20.296C112.375 20.608 112.751 20.852 113.183 21.028C113.615 21.196 114.083 21.28 114.587 21.28ZM119.52 22L123.36 13.6H124.236L128.076 22H127.14L123.612 14.116H123.972L120.444 22H119.52ZM121.032 19.756L121.296 19.036H126.18L126.444 19.756H121.032ZM129.466 22V13.6H132.886C133.782 13.6 134.566 13.78 135.238 14.14C135.918 14.492 136.446 14.984 136.822 15.616C137.198 16.248 137.386 16.976 137.386 17.8C137.386 18.624 137.198 19.352 136.822 19.984C136.446 20.616 135.918 21.112 135.238 21.472C134.566 21.824 133.782 22 132.886 22H129.466ZM130.354 21.232H132.838C133.582 21.232 134.226 21.088 134.77 20.8C135.322 20.504 135.75 20.1 136.054 19.588C136.358 19.068 136.51 18.472 136.51 17.8C136.51 17.12 136.358 16.524 136.054 16.012C135.75 15.5 135.322 15.1 134.77 14.812C134.226 14.516 133.582 14.368 132.838 14.368H130.354V21.232ZM146.192 22.072C145.56 22.072 144.972 21.968 144.428 21.76C143.892 21.544 143.424 21.244 143.024 20.86C142.632 20.468 142.324 20.016 142.1 19.504C141.884 18.984 141.776 18.416 141.776 17.8C141.776 17.184 141.884 16.62 142.1 16.108C142.324 15.588 142.632 15.136 143.024 14.752C143.424 14.36 143.892 14.06 144.428 13.852C144.964 13.636 145.552 13.528 146.192 13.528C146.824 13.528 147.408 13.636 147.944 13.852C148.48 14.06 148.944 14.356 149.336 14.74C149.736 15.124 150.044 15.576 150.26 16.096C150.484 16.616 150.596 17.184 150.596 17.8C150.596 18.416 150.484 18.984 150.26 19.504C150.044 20.024 149.736 20.476 149.336 20.86C148.944 21.244 148.48 21.544 147.944 21.76C147.408 21.968 146.824 22.072 146.192 22.072ZM146.192 21.28C146.696 21.28 147.16 21.196 147.584 21.028C148.016 20.852 148.388 20.608 148.7 20.296C149.02 19.976 149.268 19.608 149.444 19.192C149.62 18.768 149.708 18.304 149.708 17.8C149.708 17.296 149.62 16.836 149.444 16.42C149.268 15.996 149.02 15.628 148.7 15.316C148.388 14.996 148.016 14.752 147.584 14.584C147.16 14.408 146.696 14.32 146.192 14.32C145.688 14.32 145.22 14.408 144.788 14.584C144.356 14.752 143.98 14.996 143.66 15.316C143.348 15.628 143.1 15.996 142.916 16.42C142.74 16.836 142.652 17.296 142.652 17.8C142.652 18.296 142.74 18.756 142.916 19.18C143.1 19.604 143.348 19.976 143.66 20.296C143.98 20.608 144.356 20.852 144.788 21.028C145.22 21.196 145.688 21.28 146.192 21.28ZM152.587 22V13.6H153.319L159.115 20.896H158.731V13.6H159.607V22H158.875L153.091 14.704H153.475V22H152.587Z" fill="#F7F8FA"/>
<path d="M68.42 45.24C67.3133 45.24 66.2933 45.0667 65.36 44.72C64.44 44.36 63.6333 43.8533 62.94 43.2C62.26 42.5467 61.7267 41.78 61.34 40.9C60.9667 40.02 60.78 39.0533 60.78 38C60.78 36.9467 60.9667 35.98 61.34 35.1C61.7267 34.22 62.2667 33.4533 62.96 32.8C63.6533 32.1467 64.4667 31.6467 65.4 31.3C66.3333 30.94 67.36 30.76 68.48 30.76C69.72 30.76 70.8333 30.9667 71.82 31.38C72.82 31.7933 73.66 32.3933 74.34 33.18L72.26 35.1C71.7533 34.5667 71.2 34.1733 70.6 33.92C70 33.6533 69.3467 33.52 68.64 33.52C67.96 33.52 67.34 33.6267 66.78 33.84C66.22 34.0533 65.7333 34.36 65.32 34.76C64.92 35.16 64.6067 35.6333 64.38 36.18C64.1667 36.7267 64.06 37.3333 64.06 38C64.06 38.6533 64.1667 39.2533 64.38 39.8C64.6067 40.3467 64.92 40.8267 65.32 41.24C65.7333 41.64 66.2133 41.9467 66.76 42.16C67.32 42.3733 67.9333 42.48 68.6 42.48C69.24 42.48 69.86 42.38 70.46 42.18C71.0733 41.9667 71.6667 41.6133 72.24 41.12L74.08 43.46C73.32 44.0333 72.4333 44.4733 71.42 44.78C70.42 45.0867 69.42 45.24 68.42 45.24ZM74.08 43.46L71.12 43.04V37.78H74.08V43.46ZM81.9897 45.16C80.843 45.16 79.823 44.92 78.9297 44.44C78.0497 43.96 77.3497 43.3067 76.8297 42.48C76.323 41.64 76.0697 40.6867 76.0697 39.62C76.0697 38.54 76.323 37.5867 76.8297 36.76C77.3497 35.92 78.0497 35.2667 78.9297 34.8C79.823 34.32 80.843 34.08 81.9897 34.08C83.123 34.08 84.1364 34.32 85.0297 34.8C85.923 35.2667 86.623 35.9133 87.1297 36.74C87.6364 37.5667 87.8897 38.5267 87.8897 39.62C87.8897 40.6867 87.6364 41.64 87.1297 42.48C86.623 43.3067 85.923 43.96 85.0297 44.44C84.1364 44.92 83.123 45.16 81.9897 45.16ZM81.9897 42.6C82.5097 42.6 82.9764 42.48 83.3897 42.24C83.803 42 84.1297 41.66 84.3697 41.22C84.6097 40.7667 84.7297 40.2333 84.7297 39.62C84.7297 38.9933 84.6097 38.46 84.3697 38.02C84.1297 37.58 83.803 37.24 83.3897 37C82.9764 36.76 82.5097 36.64 81.9897 36.64C81.4697 36.64 81.003 36.76 80.5897 37C80.1764 37.24 79.843 37.58 79.5897 38.02C79.3497 38.46 79.2297 38.9933 79.2297 39.62C79.2297 40.2333 79.3497 40.7667 79.5897 41.22C79.843 41.66 80.1764 42 80.5897 42.24C81.003 42.48 81.4697 42.6 81.9897 42.6ZM95.0952 45.16C93.9485 45.16 92.9285 44.92 92.0352 44.44C91.1552 43.96 90.4552 43.3067 89.9352 42.48C89.4285 41.64 89.1752 40.6867 89.1752 39.62C89.1752 38.54 89.4285 37.5867 89.9352 36.76C90.4552 35.92 91.1552 35.2667 92.0352 34.8C92.9285 34.32 93.9485 34.08 95.0952 34.08C96.2285 34.08 97.2418 34.32 98.1352 34.8C99.0285 35.2667 99.7285 35.9133 100.235 36.74C100.742 37.5667 100.995 38.5267 100.995 39.62C100.995 40.6867 100.742 41.64 100.235 42.48C99.7285 43.3067 99.0285 43.96 98.1352 44.44C97.2418 44.92 96.2285 45.16 95.0952 45.16ZM95.0952 42.6C95.6152 42.6 96.0818 42.48 96.4952 42.24C96.9085 42 97.2352 41.66 97.4752 41.22C97.7152 40.7667 97.8352 40.2333 97.8352 39.62C97.8352 38.9933 97.7152 38.46 97.4752 38.02C97.2352 37.58 96.9085 37.24 96.4952 37C96.0818 36.76 95.6152 36.64 95.0952 36.64C94.5752 36.64 94.1085 36.76 93.6952 37C93.2818 37.24 92.9485 37.58 92.6952 38.02C92.4552 38.46 92.3352 38.9933 92.3352 39.62C92.3352 40.2333 92.4552 40.7667 92.6952 41.22C92.9485 41.66 93.2818 42 93.6952 42.24C94.1085 42.48 94.5752 42.6 95.0952 42.6ZM108.141 49.04C107.127 49.04 106.147 48.9133 105.201 48.66C104.267 48.42 103.487 48.0533 102.861 47.56L104.101 45.32C104.554 45.6933 105.127 45.9867 105.821 46.2C106.527 46.4267 107.221 46.54 107.901 46.54C109.007 46.54 109.807 46.2933 110.301 45.8C110.807 45.3067 111.061 44.5733 111.061 43.6V41.98L111.261 39.28L111.221 36.56V34.24H114.181V43.2C114.181 45.2 113.661 46.6733 112.621 47.62C111.581 48.5667 110.087 49.04 108.141 49.04ZM107.661 44.48C106.661 44.48 105.754 44.2667 104.941 43.84C104.141 43.4 103.494 42.7933 103.001 42.02C102.521 41.2333 102.281 40.32 102.281 39.28C102.281 38.2267 102.521 37.3133 103.001 36.54C103.494 35.7533 104.141 35.1467 104.941 34.72C105.754 34.2933 106.661 34.08 107.661 34.08C108.567 34.08 109.367 34.2667 110.061 34.64C110.754 35 111.294 35.5667 111.681 36.34C112.067 37.1 112.261 38.08 112.261 39.28C112.261 40.4667 112.067 41.4467 111.681 42.22C111.294 42.98 110.754 43.5467 110.061 43.92C109.367 44.2933 108.567 44.48 107.661 44.48ZM108.281 41.92C108.827 41.92 109.314 41.8133 109.741 41.6C110.167 41.3733 110.501 41.06 110.741 40.66C110.981 40.26 111.101 39.8 111.101 39.28C111.101 38.7467 110.981 38.2867 110.741 37.9C110.501 37.5 110.167 37.1933 109.741 36.98C109.314 36.7533 108.827 36.64 108.281 36.64C107.734 36.64 107.247 36.7533 106.821 36.98C106.394 37.1933 106.054 37.5 105.801 37.9C105.561 38.2867 105.441 38.7467 105.441 39.28C105.441 39.8 105.561 40.26 105.801 40.66C106.054 41.06 106.394 41.3733 106.821 41.6C107.247 41.8133 107.734 41.92 108.281 41.92ZM117.085 45V30.16H120.205V45H117.085ZM128.44 45.16C127.213 45.16 126.133 44.92 125.2 44.44C124.28 43.96 123.567 43.3067 123.06 42.48C122.553 41.64 122.3 40.6867 122.3 39.62C122.3 38.54 122.547 37.5867 123.04 36.76C123.547 35.92 124.233 35.2667 125.1 34.8C125.967 34.32 126.947 34.08 128.04 34.08C129.093 34.08 130.04 34.3067 130.88 34.76C131.733 35.2 132.407 35.84 132.9 36.68C133.393 37.5067 133.64 38.5 133.64 39.66C133.64 39.78 133.633 39.92 133.62 40.08C133.607 40.2267 133.593 40.3667 133.58 40.5H124.84V38.68H131.94L130.74 39.22C130.74 38.66 130.627 38.1733 130.4 37.76C130.173 37.3467 129.86 37.0267 129.46 36.8C129.06 36.56 128.593 36.44 128.06 36.44C127.527 36.44 127.053 36.56 126.64 36.8C126.24 37.0267 125.927 37.3533 125.7 37.78C125.473 38.1933 125.36 38.6867 125.36 39.26V39.74C125.36 40.3267 125.487 40.8467 125.74 41.3C126.007 41.74 126.373 42.08 126.84 42.32C127.32 42.5467 127.88 42.66 128.52 42.66C129.093 42.66 129.593 42.5733 130.02 42.4C130.46 42.2267 130.86 41.9667 131.22 41.62L132.88 43.42C132.387 43.98 131.767 44.4133 131.02 44.72C130.273 45.0133 129.413 45.16 128.44 45.16ZM141.601 45V31H147.661C148.915 31 149.995 31.2067 150.901 31.62C151.808 32.02 152.508 32.6 153.001 33.36C153.495 34.12 153.741 35.0267 153.741 36.08C153.741 37.12 153.495 38.02 153.001 38.78C152.508 39.54 151.808 40.1267 150.901 40.54C149.995 40.94 148.915 41.14 147.661 41.14H143.401L144.841 39.68V45H141.601ZM144.841 40.04L143.401 38.5H147.481C148.481 38.5 149.228 38.2867 149.721 37.86C150.215 37.4333 150.461 36.84 150.461 36.08C150.461 35.3067 150.215 34.7067 149.721 34.28C149.228 33.8533 148.481 33.64 147.481 33.64H143.401L144.841 32.1V40.04ZM156.03 45V30.16H159.15V45H156.03ZM168.645 45V42.9L168.445 42.44V38.68C168.445 38.0133 168.239 37.4933 167.825 37.12C167.425 36.7467 166.805 36.56 165.965 36.56C165.392 36.56 164.825 36.6533 164.265 36.84C163.719 37.0133 163.252 37.2533 162.865 37.56L161.745 35.38C162.332 34.9667 163.039 34.6467 163.865 34.42C164.692 34.1933 165.532 34.08 166.385 34.08C168.025 34.08 169.299 34.4667 170.205 35.24C171.112 36.0133 171.565 37.22 171.565 38.86V45H168.645ZM165.365 45.16C164.525 45.16 163.805 45.02 163.205 44.74C162.605 44.4467 162.145 44.0533 161.825 43.56C161.505 43.0667 161.345 42.5133 161.345 41.9C161.345 41.26 161.499 40.7 161.805 40.22C162.125 39.74 162.625 39.3667 163.305 39.1C163.985 38.82 164.872 38.68 165.965 38.68H168.825V40.5H166.305C165.572 40.5 165.065 40.62 164.785 40.86C164.519 41.1 164.385 41.4 164.385 41.76C164.385 42.16 164.539 42.48 164.845 42.72C165.165 42.9467 165.599 43.06 166.145 43.06C166.665 43.06 167.132 42.94 167.545 42.7C167.959 42.4467 168.259 42.08 168.445 41.6L168.925 43.04C168.699 43.7333 168.285 44.26 167.685 44.62C167.085 44.98 166.312 45.16 165.365 45.16ZM175.573 49.04C175.013 49.04 174.46 48.9533 173.913 48.78C173.367 48.6067 172.92 48.3667 172.573 48.06L173.713 45.84C173.953 46.0533 174.227 46.22 174.533 46.34C174.853 46.46 175.167 46.52 175.473 46.52C175.913 46.52 176.26 46.4133 176.513 46.2C176.78 46 177.02 45.66 177.233 45.18L177.793 43.86L178.033 43.52L181.893 34.24H184.893L180.033 45.66C179.687 46.5267 179.287 47.2067 178.833 47.7C178.393 48.1933 177.9 48.54 177.353 48.74C176.82 48.94 176.227 49.04 175.573 49.04ZM177.413 45.42L172.613 34.24H175.833L179.553 43.24L177.413 45.42Z" fill="#F7F8FA"/>
<defs>
<clipPath id="clip0_10_4220">
<rect width="40" height="40" fill="white" transform="translate(10 10)"/>
</clipPath>
</defs>
</svg>
