<svg width="1440" height="1122" viewBox="0 0 1440 1122" fill="none" xmlns="http://www.w3.org/2000/svg">
<rect width="1439" height="1122" fill="#E6F4F1"/>
<circle cx="1439.5" cy="527.5" r="149.901" stroke="#36B79B" stroke-width="3"/>
<circle cx="1439.5" cy="527.5" r="265.254" stroke="#36B79B" stroke-width="3"/>
<circle cx="1439.5" cy="527.5" r="399.833" stroke="#36B79B" stroke-width="3"/>
<circle cx="1439.5" cy="527.5" r="526" stroke="#36B79B" stroke-width="3"/>
<mask id="mask0_10_4622" style="mask-type:alpha" maskUnits="userSpaceOnUse" x="-380" y="-267" width="1042" height="983">
<path d="M661.419 48.7668L-155.353 715.443L-379.381 126.532L-39.876 -266.909L661.419 48.7668Z" fill="url(#paint0_linear_10_4622)"/>
<path d="M-154.987 714.077L-378.432 126.699L-39.6529 -265.902L659.86 48.9722L-154.987 714.077Z" stroke="#BAFF84" stroke-opacity="0.21" stroke-width="1.65428"/>
</mask>
<g mask="url(#mask0_10_4622)">
<path d="M-156.661 226.188C-236.814 157.023 -245.721 35.9772 -176.557 -44.1758C-107.392 -124.329 13.6541 -133.236 93.8071 -64.0717C173.96 5.09309 74.8642 32.9417 5.69937 113.095C-63.4654 193.248 -76.5078 295.353 -156.661 226.188Z" fill="#00FF85"/>
<path d="M-72.001 225.113C-82.9191 238.508 -94.0383 247.072 -107.271 248.143C-120.514 249.214 -136.141 242.802 -156.12 225.561C-235.927 156.695 -244.796 36.1722 -175.93 -43.6349C-107.064 -123.442 13.4594 -132.312 93.2666 -63.4456C113.246 -46.2052 121.877 -31.6851 122.756 -18.4278C123.633 -5.18124 116.79 7.07194 105.137 19.8332C93.4842 32.5948 77.1785 45.7032 59.3842 60.6916C41.6146 75.6593 22.4096 92.4639 5.07303 112.555C-12.2634 132.645 -26.0752 154.103 -38.2804 173.872C-50.5025 193.669 -61.0827 211.718 -72.001 225.113Z" stroke="#BAFF84" stroke-opacity="0.21" stroke-width="1.65428"/>
<g filter="url(#filter0_f_10_4622)">
<path d="M-159.554 223.691C-221.599 170.151 -215.827 61.7721 -146.663 -18.3809C-77.4979 -98.5339 28.8689 -120.108 90.9143 -66.5689C152.96 -13.0293 147.188 95.3498 78.0234 175.503C8.85855 255.656 -97.5083 277.23 -159.554 223.691Z" fill="#00FF85"/>
<path d="M77.3969 174.963C8.39371 254.928 -97.4532 276.185 -159.013 223.065C-220.573 169.944 -215.039 62.1258 -146.036 -17.84C-77.0331 -97.8057 28.8143 -119.063 90.3741 -65.9425C151.934 -12.8219 146.4 94.997 77.3969 174.963Z" stroke="#BAFF84" stroke-opacity="0.21" stroke-width="1.65428"/>
</g>
<g filter="url(#filter1_f_10_4622)">
<ellipse cx="-28.5363" cy="83.5535" rx="191.693" ry="148.387" transform="rotate(130.791 -28.5363 83.5535)" fill="#00FF85"/>
<path d="M83.1802 179.955C14.1771 259.921 -91.6698 281.177 -153.23 228.057C-214.789 174.937 -209.256 67.1183 -140.253 -12.8474C-71.2498 -92.8132 34.5976 -114.07 96.1574 -60.95C157.717 -7.82937 152.183 99.9896 83.1802 179.955Z" stroke="#BAFF84" stroke-opacity="0.21" stroke-width="1.65428"/>
</g>
<g filter="url(#filter2_f_10_4622)">
<ellipse cx="-12.6212" cy="97.2841" rx="191.693" ry="149.024" transform="rotate(130.791 -12.6212 97.2841)" fill="#00FF85"/>
<path d="M99.5775 194.102C30.5767 274.065 -75.4862 295.14 -137.314 241.788C-199.142 188.436 -193.821 80.4297 -124.821 0.466686C-55.8197 -79.4963 50.2444 -100.571 112.073 -47.2192C173.901 6.13301 168.578 114.139 99.5775 194.102Z" stroke="#BAFF84" stroke-opacity="0.21" stroke-width="1.65428"/>
</g>
<g filter="url(#filter3_f_10_4622)">
<ellipse cx="35.1104" cy="138.474" rx="191.693" ry="148.387" transform="rotate(130.791 35.1104 138.474)" fill="#00FF85"/>
<path d="M146.827 234.876C77.8238 314.841 -28.0231 336.098 -89.5828 282.977C-151.143 229.857 -145.609 122.039 -76.6063 42.073C-7.60308 -37.8928 98.2443 -59.1501 159.804 -6.02952C221.364 47.0911 215.83 154.91 146.827 234.876Z" stroke="#BAFF84" stroke-opacity="0.21" stroke-width="1.65428"/>
</g>
<g filter="url(#filter4_f_10_4622)">
<ellipse cx="99.7189" cy="194.225" rx="161.124" ry="148.387" transform="rotate(130.791 99.7189 194.225)" fill="#00FF85"/>
<path d="M211.436 290.627C153.556 357.701 56.6482 368.785 -5.00369 315.585C-66.6556 262.385 -69.8771 164.899 -11.9976 97.8238C45.8819 30.749 142.79 19.6651 204.442 72.8652C266.093 126.065 269.315 223.552 211.436 290.627Z" stroke="#BAFF84" stroke-opacity="0.21" stroke-width="1.65428"/>
</g>
</g>
<g filter="url(#filter5_d_10_4622)">
<path d="M813.679 849.428L774.565 928.864L758.342 929.98L695.004 934.219L683.448 934.889L631 857.238L684.115 777.802L761.009 772L813.679 849.428Z" fill="url(#paint1_linear_10_4622)"/>
<path d="M774.564 928.864L721.005 849.428L756.785 774.455L761.007 772L813.677 849.428L774.564 928.864Z" fill="url(#paint2_linear_10_4622)"/>
<path d="M631 857.238L669.669 778.694L761.009 772L722.339 851.213L631 857.238Z" fill="url(#paint3_linear_10_4622)"/>
</g>
<defs>
<filter id="filter0_f_10_4622" x="-209.178" y="-102.604" width="349.716" height="362.329" filterUnits="userSpaceOnUse" color-interpolation-filters="sRGB">
<feFlood flood-opacity="0" result="BackgroundImageFix"/>
<feBlend mode="normal" in="SourceGraphic" in2="BackgroundImageFix" result="shape"/>
<feGaussianBlur stdDeviation="3.30857" result="effect1_foregroundBlur_10_4622"/>
</filter>
<filter id="filter1_f_10_4622" x="-219.937" y="-114.154" width="382.802" height="395.415" filterUnits="userSpaceOnUse" color-interpolation-filters="sRGB">
<feFlood flood-opacity="0" result="BackgroundImageFix"/>
<feBlend mode="normal" in="SourceGraphic" in2="BackgroundImageFix" result="shape"/>
<feGaussianBlur stdDeviation="11.58" result="effect1_foregroundBlur_10_4622"/>
</filter>
<filter id="filter2_f_10_4622" x="-237.43" y="-133.74" width="449.618" height="462.049" filterUnits="userSpaceOnUse" color-interpolation-filters="sRGB">
<feFlood flood-opacity="0" result="BackgroundImageFix"/>
<feBlend mode="normal" in="SourceGraphic" in2="BackgroundImageFix" result="shape"/>
<feGaussianBlur stdDeviation="28.1228" result="effect1_foregroundBlur_10_4622"/>
</filter>
<filter id="filter3_f_10_4622" x="-255.548" y="-158.491" width="581.316" height="593.929" filterUnits="userSpaceOnUse" color-interpolation-filters="sRGB">
<feFlood flood-opacity="0" result="BackgroundImageFix"/>
<feBlend mode="normal" in="SourceGraphic" in2="BackgroundImageFix" result="shape"/>
<feGaussianBlur stdDeviation="61.2085" result="effect1_foregroundBlur_10_4622"/>
</filter>
<filter id="filter4_f_10_4622" x="-269.291" y="-176.653" width="738.019" height="741.756" filterUnits="userSpaceOnUse" color-interpolation-filters="sRGB">
<feFlood flood-opacity="0" result="BackgroundImageFix"/>
<feBlend mode="normal" in="SourceGraphic" in2="BackgroundImageFix" result="shape"/>
<feGaussianBlur stdDeviation="107.528" result="effect1_foregroundBlur_10_4622"/>
</filter>
<filter id="filter5_d_10_4622" x="626.346" y="772" width="234.801" height="242.934" filterUnits="userSpaceOnUse" color-interpolation-filters="sRGB">
<feFlood flood-opacity="0" result="BackgroundImageFix"/>
<feColorMatrix in="SourceAlpha" type="matrix" values="0 0 0 0 0 0 0 0 0 0 0 0 0 0 0 0 0 0 127 0" result="hardAlpha"/>
<feOffset dx="21.4076" dy="53.9843"/>
<feGaussianBlur stdDeviation="13.0307"/>
<feColorMatrix type="matrix" values="0 0 0 0 0.0326389 0 0 0 0 0.979167 0 0 0 0 0.922375 0 0 0 0.15 0"/>
<feBlend mode="normal" in2="BackgroundImageFix" result="effect1_dropShadow_10_4622"/>
<feBlend mode="normal" in="SourceGraphic" in2="effect1_dropShadow_10_4622" result="shape"/>
</filter>
<linearGradient id="paint0_linear_10_4622" x1="-188.324" y1="108.86" x2="205.599" y2="448.781" gradientUnits="userSpaceOnUse">
<stop stop-color="white"/>
<stop offset="1" stop-color="white" stop-opacity="0"/>
</linearGradient>
<linearGradient id="paint1_linear_10_4622" x1="737.563" y1="934.889" x2="693.415" y2="861.817" gradientUnits="userSpaceOnUse">
<stop stop-color="#69DBFF"/>
<stop offset="1" stop-color="#7DEDE0"/>
</linearGradient>
<linearGradient id="paint2_linear_10_4622" x1="730.711" y1="854.967" x2="799.215" y2="876.279" gradientUnits="userSpaceOnUse">
<stop stop-color="#7EFCCE"/>
<stop offset="1" stop-color="#AFE7FF"/>
</linearGradient>
<linearGradient id="paint3_linear_10_4622" x1="672.864" y1="781.895" x2="721.578" y2="851.161" gradientUnits="userSpaceOnUse">
<stop stop-color="#C6FFCF"/>
<stop offset="1" stop-color="#BEFBFF"/>
</linearGradient>
</defs>
</svg>
